<svg xmlns="http://www.w3.org/2000/svg" xmlns:xlink="http://www.w3.org/1999/xlink" width="100" zoomAndPan="magnify" viewBox="0 0 75 74.999997" height="100" preserveAspectRatio="xMidYMid meet" version="1.2"><defs><clipPath id="c8f97d5bec"><path d="M 14.203125 24.589844 L 61.359375 24.589844 L 61.359375 50.839844 L 14.203125 50.839844 Z M 14.203125 24.589844 "/></clipPath></defs><g id="4534878f03"><g style="fill:#ffffff;fill-opacity:1;"><g transform="translate(36.977004, 34.724529)"><path style="stroke:none" d="M 2.46875 -15.25 C 3.363281 -15.625 4.226562 -15.8125 5.0625 -15.8125 C 5.757812 -15.8125 6.472656 -15.554688 7.203125 -15.046875 C 7.609375 -14.765625 8.0625 -14.222656 8.5625 -13.421875 C 8.894531 -12.867188 9.316406 -11.863281 9.828125 -10.40625 L 12.359375 -3.21875 C 12.941406 -1.613281 13.535156 -0.335938 14.140625 0.609375 C 14.742188 1.554688 15.289062 2.269531 15.78125 2.75 C 16.28125 3.226562 16.800781 3.5625 17.34375 3.75 C 17.882812 3.945312 18.332031 4.046875 18.6875 4.046875 C 19.039062 4.046875 19.359375 4.019531 19.640625 3.96875 L 19.65625 4.171875 C 18.988281 4.398438 18.335938 4.515625 17.703125 4.515625 C 17.066406 4.515625 16.425781 4.347656 15.78125 4.015625 C 15.144531 3.691406 14.550781 3.238281 14 2.65625 C 12.8125 1.457031 11.800781 -0.375 10.96875 -2.84375 L 10.15625 -5.21875 L 4.46875 -5.21875 L 3.03125 -1.515625 C 2.957031 -1.347656 2.921875 -1.179688 2.921875 -1.015625 C 2.921875 -0.847656 2.992188 -0.671875 3.140625 -0.484375 C 3.285156 -0.296875 3.507812 -0.203125 3.8125 -0.203125 L 3.984375 -0.203125 L 3.984375 0 L -0.1875 0 L -0.1875 -0.203125 L 0 -0.203125 C 0.332031 -0.203125 0.65625 -0.300781 0.96875 -0.5 C 1.289062 -0.707031 1.554688 -1.007812 1.765625 -1.40625 L 6.921875 -13.75 C 6.171875 -14.820312 5.238281 -15.359375 4.125 -15.359375 C 3.625 -15.359375 3.09375 -15.253906 2.53125 -15.046875 Z M 4.6875 -5.84375 L 9.953125 -5.84375 L 8.3125 -10.6875 C 7.988281 -11.613281 7.695312 -12.335938 7.4375 -12.859375 Z M 4.6875 -5.84375 "/></g></g><g clip-rule="nonzero" clip-path="url(#c8f97d5bec)"><path style=" stroke:none;fill-rule:nonzero;fill:#ffffff;fill-opacity:1;" d="M 53.234375 38.925781 C 53.523438 39.007812 53.820312 39.074219 54.121094 39.117188 C 54.421875 39.15625 54.722656 39.179688 55.03125 39.179688 C 56.800781 39.179688 58.402344 38.460938 59.5625 37.300781 C 60.722656 36.140625 61.441406 34.539062 61.441406 32.769531 C 61.441406 31 60.722656 29.398438 59.5625 28.238281 C 58.402344 27.078125 56.800781 26.359375 55.03125 26.359375 C 54.046875 26.359375 53.113281 26.582031 52.28125 26.980469 C 51.414062 27.390625 50.65625 27.992188 50.058594 28.726562 C 48.242188 30.925781 46.765625 33.230469 45.289062 35.535156 C 42.246094 40.285156 39.210938 45.027344 33.273438 48.730469 C 32.730469 49.027344 32.164062 49.28125 31.574219 49.496094 C 30.214844 49.996094 28.746094 50.269531 27.214844 50.269531 C 23.714844 50.269531 20.542969 48.847656 18.25 46.554688 C 15.957031 44.261719 14.539062 41.09375 14.539062 37.59375 C 14.539062 34.089844 15.957031 30.921875 18.25 28.628906 C 20.421875 26.457031 23.375 25.070312 26.648438 24.929688 C 26.390625 25.113281 26.222656 25.417969 26.222656 25.761719 C 26.222656 26.328125 26.683594 26.785156 27.25 26.785156 C 27.816406 26.785156 28.277344 26.328125 28.277344 25.761719 C 28.277344 25.265625 27.929688 24.855469 27.464844 24.757812 L 27.464844 24.59375 L 27.214844 24.59375 C 23.625 24.59375 20.375 26.046875 18.023438 28.398438 C 15.671875 30.753906 14.214844 34.003906 14.214844 37.59375 C 14.214844 41.183594 15.671875 44.433594 18.023438 46.785156 C 20.375 49.136719 23.625 50.59375 27.214844 50.59375 C 28.785156 50.59375 30.292969 50.3125 31.6875 49.800781 C 33.132812 49.273438 34.460938 48.492188 35.613281 47.515625 C 40.226562 44.039062 42.890625 39.875 45.5625 35.710938 C 47.035156 33.414062 48.507812 31.113281 50.308594 28.933594 L 50.183594 28.832031 L 50.308594 28.933594 C 50.875 28.234375 51.597656 27.664062 52.417969 27.273438 C 53.210938 26.894531 54.09375 26.683594 55.03125 26.683594 C 56.710938 26.683594 58.234375 27.367188 59.335938 28.46875 C 60.4375 29.570312 61.117188 31.089844 61.117188 32.773438 C 61.117188 34.453125 60.4375 35.972656 59.335938 37.074219 C 58.234375 38.175781 56.710938 38.859375 55.03125 38.859375 C 54.734375 38.859375 54.449219 38.835938 54.167969 38.796875 C 53.878906 38.757812 53.597656 38.695312 53.328125 38.617188 L 53.238281 38.925781 Z M 53.234375 38.925781 "/></g><g style="fill:#ffffff;fill-opacity:1;"><g transform="translate(42.333744, 42.682281)"><path style="stroke:none" d="M 0.625 -1.421875 L 0.734375 -1.4375 L 0.953125 -0.859375 C 0.984375 -0.785156 1.019531 -0.695312 1.0625 -0.59375 C 1.144531 -0.382812 1.1875 -0.273438 1.1875 -0.265625 C 1.195312 -0.222656 1.222656 -0.171875 1.265625 -0.109375 L 1.375 -0.09375 L 1.359375 0.015625 L 1.234375 0 C 1.128906 0 1.0625 0 1.03125 0 C 1.007812 0 0.984375 0 0.953125 0 L 0.90625 0.015625 L 0.890625 -0.09375 L 1.03125 -0.109375 C 1.019531 -0.179688 1.007812 -0.234375 1 -0.265625 L 0.921875 -0.46875 L 0.421875 -0.46875 L 0.34375 -0.234375 C 0.332031 -0.191406 0.320312 -0.148438 0.3125 -0.109375 L 0.46875 -0.09375 L 0.46875 0.015625 L 0.34375 0 C 0.25 0 0.179688 0 0.140625 0 C 0.109375 0 0.078125 0 0.046875 0 L 0.015625 0.015625 L 0.015625 -0.09375 L 0.125 -0.109375 C 0.195312 -0.242188 0.234375 -0.316406 0.234375 -0.328125 Z M 0.453125 -0.578125 C 0.523438 -0.566406 0.578125 -0.5625 0.609375 -0.5625 C 0.640625 -0.5625 0.6875 -0.5625 0.75 -0.5625 C 0.8125 -0.570312 0.859375 -0.578125 0.890625 -0.578125 L 0.65625 -1.140625 Z M 0.453125 -0.578125 "/></g></g><g style="fill:#ffffff;fill-opacity:1;"><g transform="translate(45.141592, 42.682281)"><path style="stroke:none" d="M 0.28125 -1.421875 L 0.640625 -1.4375 C 0.785156 -1.4375 0.894531 -1.398438 0.96875 -1.328125 C 1.050781 -1.265625 1.09375 -1.171875 1.09375 -1.046875 C 1.09375 -0.953125 1.0625 -0.867188 1 -0.796875 C 0.945312 -0.734375 0.875 -0.691406 0.78125 -0.671875 C 0.882812 -0.460938 0.957031 -0.328125 1 -0.265625 C 1 -0.265625 1.03125 -0.21875 1.09375 -0.125 L 1.234375 -0.09375 L 1.21875 0.015625 L 1.15625 0 C 1.09375 0 1.050781 0 1.03125 0 C 1.007812 0 0.976562 0.00390625 0.9375 0.015625 L 0.921875 0 C 0.867188 -0.125 0.832031 -0.203125 0.8125 -0.234375 L 0.59375 -0.640625 C 0.519531 -0.640625 0.460938 -0.640625 0.421875 -0.640625 L 0.421875 -0.34375 C 0.421875 -0.269531 0.421875 -0.21875 0.421875 -0.1875 L 0.4375 -0.109375 L 0.578125 -0.109375 L 0.5625 0.015625 L 0.484375 0 C 0.421875 0 0.363281 0 0.3125 0 C 0.257812 0 0.207031 0.00390625 0.15625 0.015625 L 0.078125 0.015625 L 0.0625 -0.09375 L 0.21875 -0.109375 C 0.21875 -0.128906 0.21875 -0.15625 0.21875 -0.1875 C 0.226562 -0.21875 0.234375 -0.25 0.234375 -0.28125 L 0.234375 -1.140625 C 0.234375 -1.160156 0.226562 -1.1875 0.21875 -1.21875 C 0.21875 -1.257812 0.21875 -1.289062 0.21875 -1.3125 L 0.0625 -1.328125 L 0.078125 -1.4375 L 0.140625 -1.421875 C 0.191406 -1.421875 0.234375 -1.421875 0.265625 -1.421875 Z M 0.5625 -0.75 C 0.664062 -0.75 0.742188 -0.773438 0.796875 -0.828125 C 0.859375 -0.878906 0.890625 -0.953125 0.890625 -1.046875 C 0.890625 -1.140625 0.859375 -1.210938 0.796875 -1.265625 C 0.742188 -1.316406 0.664062 -1.34375 0.5625 -1.34375 C 0.53125 -1.34375 0.488281 -1.335938 0.4375 -1.328125 L 0.421875 -1.25 C 0.421875 -1.207031 0.421875 -1.148438 0.421875 -1.078125 L 0.421875 -0.75 C 0.453125 -0.75 0.5 -0.75 0.5625 -0.75 Z M 0.5625 -0.75 "/></g></g><g style="fill:#ffffff;fill-opacity:1;"><g transform="translate(47.810885, 42.682281)"><path style="stroke:none" d="M 0.25 -0.28125 L 0.25 -1.140625 C 0.25 -1.160156 0.242188 -1.1875 0.234375 -1.21875 C 0.234375 -1.257812 0.234375 -1.289062 0.234375 -1.3125 L 0.078125 -1.328125 L 0.09375 -1.4375 L 0.15625 -1.421875 C 0.207031 -1.421875 0.257812 -1.421875 0.3125 -1.421875 C 0.375 -1.421875 0.429688 -1.421875 0.484375 -1.421875 L 0.59375 -1.4375 L 0.609375 -1.3125 L 0.453125 -1.3125 L 0.453125 -1.234375 C 0.441406 -1.203125 0.4375 -1.148438 0.4375 -1.078125 L 0.4375 -0.34375 C 0.4375 -0.269531 0.441406 -0.21875 0.453125 -0.1875 L 0.453125 -0.109375 L 0.609375 -0.109375 L 0.59375 0.015625 L 0.484375 0 C 0.398438 0 0.335938 0 0.296875 0 C 0.253906 0 0.207031 0 0.15625 0 L 0.09375 0.015625 L 0.078125 -0.09375 L 0.234375 -0.109375 C 0.234375 -0.128906 0.234375 -0.15625 0.234375 -0.1875 C 0.242188 -0.21875 0.25 -0.25 0.25 -0.28125 Z M 0.25 -0.28125 "/></g></g><g style="fill:#ffffff;fill-opacity:1;"><g transform="translate(49.929969, 42.682281)"><path style="stroke:none" d="M 1.28125 -0.59375 L 1.28125 0.015625 L 1.171875 0.015625 L 0.375 -1.125 L 0.375 -0.34375 C 0.375 -0.269531 0.375 -0.21875 0.375 -0.1875 L 0.390625 -0.109375 L 0.546875 -0.109375 L 0.53125 0.015625 L 0.453125 0 C 0.390625 0 0.332031 0 0.28125 0 C 0.238281 0 0.191406 0.00390625 0.140625 0.015625 L 0.078125 0.015625 L 0.0625 -0.09375 L 0.21875 -0.109375 C 0.21875 -0.128906 0.21875 -0.15625 0.21875 -0.1875 C 0.226562 -0.21875 0.234375 -0.25 0.234375 -0.28125 L 0.234375 -1.140625 C 0.234375 -1.160156 0.226562 -1.1875 0.21875 -1.21875 C 0.21875 -1.257812 0.21875 -1.289062 0.21875 -1.3125 L 0.0625 -1.328125 L 0.078125 -1.4375 L 0.15625 -1.421875 C 0.21875 -1.421875 0.265625 -1.421875 0.296875 -1.421875 C 0.328125 -1.421875 0.363281 -1.421875 0.40625 -1.421875 L 0.453125 -1.421875 C 0.472656 -1.367188 0.503906 -1.300781 0.546875 -1.21875 C 0.585938 -1.132812 0.613281 -1.082031 0.625 -1.0625 L 1.15625 -0.328125 L 1.15625 -1.125 C 1.15625 -1.144531 1.148438 -1.175781 1.140625 -1.21875 C 1.140625 -1.257812 1.132812 -1.289062 1.125 -1.3125 L 0.984375 -1.328125 L 0.984375 -1.4375 L 1.046875 -1.421875 C 1.097656 -1.421875 1.148438 -1.421875 1.203125 -1.421875 C 1.265625 -1.421875 1.320312 -1.421875 1.375 -1.421875 L 1.46875 -1.4375 L 1.484375 -1.3125 L 1.328125 -1.3125 L 1.296875 -1.21875 C 1.285156 -1.15625 1.28125 -1.101562 1.28125 -1.0625 Z M 1.28125 -0.59375 "/></g></g><g style="fill:#ffffff;fill-opacity:1;"><g transform="translate(52.894445, 42.682281)"><path style="stroke:none" d="M 0.125 -1.4375 C 0.257812 -1.425781 0.34375 -1.421875 0.375 -1.421875 L 1.03125 -1.421875 L 1.046875 -1.3125 C 0.941406 -1.144531 0.867188 -1.039062 0.828125 -1 L 0.453125 -0.390625 L 0.3125 -0.125 L 0.71875 -0.125 C 0.75 -0.125 0.804688 -0.128906 0.890625 -0.140625 C 0.910156 -0.160156 0.921875 -0.179688 0.921875 -0.203125 L 0.953125 -0.359375 L 1.0625 -0.359375 L 1.046875 -0.015625 L 1.015625 0.015625 L 0.90625 0 C 0.832031 0 0.785156 0 0.765625 0 L 0.046875 0 L 0.046875 -0.109375 L 0.140625 -0.25 C 0.210938 -0.34375 0.257812 -0.40625 0.28125 -0.4375 L 0.671875 -1.046875 L 0.796875 -1.296875 L 0.4375 -1.296875 C 0.414062 -1.296875 0.359375 -1.289062 0.265625 -1.28125 C 0.242188 -1.257812 0.226562 -1.242188 0.21875 -1.234375 C 0.21875 -1.222656 0.210938 -1.195312 0.203125 -1.15625 C 0.203125 -1.125 0.203125 -1.101562 0.203125 -1.09375 L 0.09375 -1.109375 L 0.109375 -1.421875 Z M 0.125 -1.4375 "/></g></g><g style="fill:#ffffff;fill-opacity:1;"><g transform="translate(55.431206, 42.682281)"><path style="stroke:none" d="M 0.703125 -0.671875 L 0.609375 -0.6875 L 0.5 -0.6875 C 0.488281 -0.6875 0.460938 -0.6875 0.421875 -0.6875 L 0.421875 -0.34375 C 0.421875 -0.25 0.425781 -0.171875 0.4375 -0.109375 L 0.71875 -0.109375 C 0.78125 -0.109375 0.84375 -0.113281 0.90625 -0.125 C 0.914062 -0.15625 0.925781 -0.179688 0.9375 -0.203125 C 0.9375 -0.210938 0.941406 -0.234375 0.953125 -0.265625 C 0.960938 -0.304688 0.96875 -0.332031 0.96875 -0.34375 L 1.078125 -0.328125 L 1.046875 -0.015625 L 1.03125 0.015625 L 0.921875 0 C 0.847656 0 0.800781 0 0.78125 0 L 0.296875 0 C 0.253906 0 0.207031 0.00390625 0.15625 0.015625 L 0.078125 0.015625 L 0.0625 -0.09375 L 0.21875 -0.109375 C 0.21875 -0.128906 0.21875 -0.15625 0.21875 -0.1875 C 0.226562 -0.21875 0.234375 -0.25 0.234375 -0.28125 L 0.234375 -1.140625 C 0.234375 -1.160156 0.226562 -1.1875 0.21875 -1.21875 C 0.21875 -1.257812 0.21875 -1.289062 0.21875 -1.3125 L 0.0625 -1.328125 L 0.078125 -1.4375 L 0.125 -1.421875 C 0.164062 -1.421875 0.203125 -1.421875 0.234375 -1.421875 L 0.765625 -1.421875 C 0.796875 -1.421875 0.875 -1.425781 1 -1.4375 L 1.03125 -1.421875 L 1.046875 -1.125 L 0.921875 -1.125 C 0.910156 -1.175781 0.898438 -1.210938 0.890625 -1.234375 C 0.890625 -1.253906 0.878906 -1.273438 0.859375 -1.296875 C 0.804688 -1.304688 0.753906 -1.3125 0.703125 -1.3125 L 0.4375 -1.3125 C 0.425781 -1.257812 0.421875 -1.179688 0.421875 -1.078125 L 0.421875 -0.796875 C 0.460938 -0.796875 0.488281 -0.796875 0.5 -0.796875 L 0.65625 -0.796875 C 0.6875 -0.796875 0.726562 -0.800781 0.78125 -0.8125 L 0.796875 -0.9375 L 0.890625 -0.9375 C 0.890625 -0.914062 0.890625 -0.890625 0.890625 -0.859375 L 0.890625 -0.765625 C 0.890625 -0.703125 0.890625 -0.65625 0.890625 -0.625 L 0.890625 -0.546875 L 0.796875 -0.53125 L 0.78125 -0.671875 Z M 0.703125 -0.671875 "/></g></g><g style="fill:#ffffff;fill-opacity:1;"><g transform="translate(19.686702, 43.212912)"><path style="stroke:none" d="M 16.5625 -7.296875 C 16.5625 -4.910156 15.921875 -3.046875 14.640625 -1.703125 C 13.359375 -0.367188 11.546875 0.296875 9.203125 0.296875 C 7.628906 0.296875 6.207031 -0.0351562 4.9375 -0.703125 C 3.664062 -1.367188 2.679688 -2.273438 1.984375 -3.421875 C 1.285156 -4.578125 0.9375 -5.863281 0.9375 -7.28125 C 0.9375 -8.695312 1.28125 -9.976562 1.96875 -11.125 C 2.664062 -12.28125 3.625 -13.1875 4.84375 -13.84375 C 6.0625 -14.507812 7.421875 -14.84375 8.921875 -14.84375 C 9.859375 -14.84375 10.816406 -14.710938 11.796875 -14.453125 C 12.773438 -14.191406 13.585938 -13.847656 14.234375 -13.421875 L 14.65625 -10.5 L 14.46875 -10.5 C 14.175781 -11.65625 13.503906 -12.5625 12.453125 -13.21875 C 11.398438 -13.882812 10.226562 -14.21875 8.9375 -14.21875 C 7.09375 -14.21875 5.554688 -13.5625 4.328125 -12.25 C 3.109375 -10.9375 2.5 -9.289062 2.5 -7.3125 C 2.5 -5.332031 3.128906 -3.671875 4.390625 -2.328125 C 5.660156 -0.992188 7.320312 -0.328125 9.375 -0.328125 C 11.425781 -0.328125 13.097656 -0.992188 14.390625 -2.328125 C 15.679688 -3.660156 16.328125 -5.484375 16.328125 -7.796875 L 16.546875 -7.796875 C 16.554688 -7.628906 16.5625 -7.460938 16.5625 -7.296875 Z M 16.5625 -7.296875 "/></g></g></g></svg>